#!OML:ASF H:\Dans Jumps\Project 1\Capture day 1\Session 1\subject.ASF
:FULLY-SPECIFIED
:DEGREES
552
root 0.498949 17.583 7.00773 7.36557 -3.81631 -1.87302
lowerback -4.62015 -1.10835 -0.213937
upperback 0.497238 -1.5118 1.45541
thorax 3.1474 -0.769398 1.50813
lowerneck -4.57324 -10.144 -6.17272
upperneck 4.12979 -13.4404 5.18575
head 2.98585 -6.64926 2.12996
rclavicle 6.44808e-015 -2.73329e-014
rhumerus -26.4965 -16.5624 -80.4017
rradius 22.8766
rwrist 37.027
rhand -18.9771 -26.4806
rfingers 7.12502
rthumb 7.32728 -56.3338
lclavicle 6.44808e-015 -2.73329e-014
lhumerus -28.6905 3.21367 88.2662
lradius 20.2843
lwrist 6.13456
lhand -26.5788 -5.41691
lfingers 7.12502
lthumb -0.0132589 24.5628
rfemur -12.7485 -1.38215 20.0818
rtibia 23.5477
rfoot -16.4285 1.97025
rtoes 12.7902
lfemur -10.2973 9.8638 -18.027
ltibia 20.5591
lfoot -13.1804 8.26063
ltoes -0.569367
553
root 0.499005 17.5829 7.00915 7.37015 -3.82001 -1.86729
lowerback -4.61964 -1.10039 -0.20926
upperback 0.493462 -1.50144 1.45726
thorax 3.14284 -0.764147 1.50822
lowerneck -4.54424 -10.1295 -6.16344
upperneck 4.0854 -13.4198 5.16163
head 2.96102 -6.64018 2.1245
rclavicle 1.25359e-014 -1.32192e-014
rhumerus -26.5849 -16.6911 -80.3212
rradius 22.7939
rwrist 37.1532
rhand -18.9505 -26.4676
rfingers 7.12502
rthumb 7.35292 -56.3198
lclavicle 1.25359e-014 -1.32192e-014
lhumerus -28.7441 3.24197 88.258
lradius 20.1927
lwrist 6.06788
lhand -26.5875 -5.42292
lfingers 7.12502
lthumb -0.0216563 24.5568
rfemur -12.7569 -1.3745 20.0761
rtibia 23.5613
rfoot -16.4354 1.96164
rtoes 12.7763
lfemur -10.2999 9.86794 -18.0341
ltibia 20.5627
lfoot -13.1855 8.25714
ltoes -0.564309
554
root 0.499032 17.5828 7.01063 7.37299 -3.82119 -1.85788
lowerback -4.6199 -1.09312 -0.207504
upperback 0.490685 -1.49185 1.45846
thorax 3.13983 -0.759331 1.5092
lowerneck -4.5214 -10.1149 -6.15558
upperneck 4.05111 -13.3987 5.13269
head 2.94048 -6.63082 2.11718
rclavicle 1.39274e-014 -1.36167e-014
rhumerus -26.674 -16.818 -80.2397
rradius 22.7113
rwrist 37.2799
rhand -18.9213 -26.4588
rfingers 7.12502
rthumb 7.38108 -56.31
lclavicle 1.39274e-014 -1.36167e-014
lhumerus -28.7926 3.25352 88.2535
lradius 20.0877
lwrist 6.00522
lhand -26.611 -5.46478
lfingers 7.12502
lthumb -0.0443899 24.515
rfemur -12.7642 -1.36952 20.0664
rtibia 23.5773
rfoot -16.4443 1.95225
rtoes 12.7576
lfemur -10.2983 9.87095 -18.0448
ltibia 20.5611
lfoot -13.1894 8.25156
ltoes -0.561066
555
root 0.499092 17.5827 7.01216 7.37384 -3.82066 -1.8466
lowerback -4.6233 -1.08603 -0.205653
upperback 0.491302 -1.48252 1.45856
thorax 3.14207 -0.75466 1.50888
lowerneck -4.50397 -10.0994 -6.15142
upperneck 4.02405 -13.3763 5.10486
head 2.92378 -6.62073 2.11046
rclavicle -2.76932e-014 1.38155e-014
rhumerus -26.7588 -16.9422 -80.1605
rradius 22.6294
rwrist 37.4063
rhand -18.8948 -26.4492
rfingers 7.12502
rthumb 7.40673 -56.2995
lclavicle -2.76932e-014 1.38155e-014
lhumerus -28.8331 3.24783 88.2518
lradius 19.9779
lwrist 5.96072
lhand -26.6253 -5.49595
lfingers 7.12502
lthumb -0.0581554 24.4838
rfemur -12.7689 -1.36818 20.0543
rtibia 23.594
rfoot -16.4544 1.94311
rtoes 12.7332
lfemur -10.2932 9.87577 -18.0577
ltibia 20.5561
lfoot -13.1918 8.24372
ltoes -0.560814
556
root 0.499106 17.5825 7.01367 7.37238 -3.82011 -1.83706
lowerback -4.6261 -1.07888 -0.20136
upperback 0.494361 -1.4733 1.45888
thorax 3.14643 -0.750019 1.50741
lowerneck -4.49531 -10.0824 -6.1471
upperneck 4.00594 -13.3517 5.07488
head 2.91143 -6.60943 2.10248
rclavicle -2.3233e-014 -4.96962e-015
rhumerus -26.838 -17.0653 -80.0841
rradius 22.5465
rwrist 37.5307
rhand -18.8802 -26.4356
rfingers 7.12502
rthumb 7.42074 -56.2854
lclavicle -2.3233e-014 -4.96962e-015
lhumerus -28.8709 3.2453 88.2461
lradius 19.8675
lwrist 5.90821
lhand -26.6462 -5.54529
lfingers 7.12502
lthumb -0.0783545 24.4344
rfemur -12.7702 -1.36545 20.0439
rtibia 23.61
rfoot -16.4647 1.93426
rtoes 12.7146
lfemur -10.2846 9.87946 -18.0681
ltibia 20.5497
lfoot -13.1937 8.23739
ltoes -0.560212
557
root 0.499094 17.5823 7.01515 7.37135 -3.81937 -1.8231
lowerback -4.63092 -1.07187 -0.201337
upperback 0.498574 -1.46399 1.4577
thorax 3.15319 -0.745403 1.50674
lowerneck -4.49057 -10.0639 -6.14158
upperneck 3.99398 -13.325 5.04251
head 2.90148 -6.59705 2.09332
rclavicle -1.63997e-015 1.43125e-014
rhumerus -26.9106 -17.1899 -80.009
rradius 22.4602
rwrist 37.6561
rhand -18.8637 -26.4272
rfingers 7.12502
rthumb 7.43673 -56.2764
lclavicle -1.63997e-015 1.43125e-014
lhumerus -28.908 3.25894 88.232
lradius 19.7702
lwrist 5.85348
lhand -26.6412 -5.54907
lfingers 7.12502
lthumb -0.0735665 24.4307
rfemur -12.7715 -1.36426 20.0283
rtibia 23.6247
rfoot -16.4738 1.92755
rtoes 12.7064
lfemur -10.2769 9.88347 -18.0835
ltibia 20.5434
lfoot -13.1959 8.23129
ltoes -0.561093
558
root 0.499048 17.5821 7.01663 7.36876 -3.81812 -1.81368
lowerback -4.63712 -1.06362 -0.195834
upperback 0.50648 -1.4534 1.45674
thorax 3.16437 -0.74009 1.50326
lowerneck -4.49345 -10.0451 -6.13204
upperneck 3.98709 -13.2977 5.00811
head 2.89414 -6.58422 2.08235
rclavicle 7.62836e-015 -1.08338e-014
rhumerus -26.9733 -17.3248 -79.935
rradius 22.3701
rwrist 37.7883
rhand -18.8439 -26.4292
rfingers 7.12502
rthumb 7.45583 -56.2778
lclavicle 7.62836e-015 -1.08338e-014
lhumerus -28.9403 3.28527 88.2102
lradius 19.6917
lwrist 5.80859
lhand -26.5954 -5.45925
lfingers 7.12502
lthumb -0.0292928 24.5205
rfemur -12.769 -1.36351 20.0176
rtibia 23.6362
rfoot -16.4822 1.92185
rtoes 12.7063
lfemur -10.2674 9.88603 -18.0934
ltibia 20.5392
lfoot -13.199 8.22717
ltoes -0.554723
559
root 0.498982 17.5819 7.018 7.36639 -3.81518 -1.80811
lowerback -4.64133 -1.05526 -0.186223
upperback 0.51335 -1.4429 1.45647
thorax 3.17327 -0.73474 1.49823
lowerneck -4.49819 -10.0246 -6.11744
upperneck 3.98652 -13.2684 4.96815
head 2.88827 -6.57045 2.06863
rclavicle 1.62631e-014 9.74045e-015
rhumerus -27.0342 -17.4618 -79.8611
rradius 22.2797
rwrist 37.9228
rhand -18.83 -26.4331
rfingers 7.12502
rthumb 7.46928 -56.2812
lclavicle 1.62631e-014 9.74045e-015
lhumerus -28.9744 3.32016 88.1827
lradius 19.6261
lwrist 5.77602
lhand -26.5125 -5.29806
lfingers 7.12502
lthumb 0.0507284 24.6817
rfemur -12.7647 -1.36436 20.0113
rtibia 23.6441
rfoot -16.4901 1.91718
rtoes 12.7029
lfemur -10.259 9.88564 -18.0985
ltibia 20.5374
lfoot -13.2043 8.22361
ltoes -0.536832
560
root 0.498917 17.5817 7.01942 7.36336 -3.80958 -1.8086
lowerback -4.6467 -1.04668 -0.169335
upperback 0.522141 -1.43256 1.45687
thorax 3.18466 -0.729365 1.48975
lowerneck -4.50515 -10.0035 -6.09833
upperneck 3.98725 -13.2384 4.92742
head 2.88279 -6.55617 2.05382
rclavicle -2.2736e-015 2.28602e-015
rhumerus -27.0898 -17.6036 -79.7877
rradius 22.1892
rwrist 38.0589
rhand -18.8172 -26.434
rfingers 7.12502
rthumb 7.48162 -56.2817
lclavicle -2.2736e-015 2.28602e-015
lhumerus -29.0033 3.36325 88.1502
lradius 19.5763
lwrist 5.76281
lhand -26.3893 -5.01376
lfingers 7.12502
lthumb 0.169707 24.9659
rfemur -12.7566 -1.36836 20.0118
rtibia 23.6485
rfoot -16.4981 1.91531
rtoes 12.7044
lfemur -10.2504 9.88353 -18.0965
ltibia 20.5378
lfoot -13.2103 8.22178
ltoes -0.52374
561
root 0.498819 17.5815 7.02064 7.35744 -3.8013 -1.81369
lowerback -4.64621 -1.03913 -0.148548
upperback 0.530948 -1.42382 1.45821
thorax 3.19275 -0.724713 1.48005
lowerneck -4.50567 -9.97999 -6.08012
upperneck 3.98227 -13.2057 4.89341
head 2.87471 -6.54058 2.04197
rclavicle 1.52816e-015 -7.05686e-015
rhumerus -27.1413 -17.7379 -79.7186
rradius 22.1014
rwrist 38.1875
rhand -18.8086 -26.4333
rfingers 7.12502
rthumb 7.48992 -56.2807
lclavicle 1.52816e-015 -7.05686e-015
lhumerus -29.0289 3.40549 88.1155
lradius 19.5277
lwrist 5.7582
lhand -26.2673 -4.71658
lfingers 7.12502
lthumb 0.287617 25.263
rfemur -12.7444 -1.37403 20.0179
rtibia 23.6507
rfoot -16.5059 1.91241
rtoes 12.695
lfemur -10.2399 9.88046 -18.0884
ltibia 20.5389
lfoot -13.2159 8.21978
ltoes -0.523146
562
root 0.498664 17.5814 7.02173 7.35513 -3.7901 -1.81113
lowerback -4.64733 -1.03307 -0.137483
upperback 0.537156 -1.41647 1.4585
thorax 3.19932 -0.720899 1.47461
lowerneck -4.50374 -9.95661 -6.06488
upperneck 3.97731 -13.1734 4.86327
head 2.86682 -6.52513 2.03196
rclavicle 8.83349e-015 -2.48481e-015
rhumerus -27.1943 -17.8609 -79.6499
rradius 22.0218
rwrist 38.3038
rhand -18.7932 -26.4364
rfingers 7.12502
rthumb 7.50481 -56.2833
lclavicle 8.83349e-015 -2.48481e-015
lhumerus -29.0552 3.45542 88.0784
lradius 19.4566
lwrist 5.71462
lhand -26.2051 -4.56771
lfingers 7.12502
lthumb 0.347624 25.4118
rfemur -12.7369 -1.38306 20.0161
rtibia 23.6523
rfoot -16.5125 1.91077
rtoes 12.6893
lfemur -10.2347 9.875 -18.0894
ltibia 20.5391
lfoot -13.2205 8.21758
ltoes -0.527021
563
root 0.498524 17.5813 7.02272 7.35298 -3.77519 -1.80576
lowerback -4.65165 -1.02856 -0.129565
upperback 0.545716 -1.41103 1.45792
thorax 3.21022 -0.718103 1.46982
lowerneck -4.49725 -9.93406 -6.05679
upperneck 3.96688 -13.1425 4.84395
head 2.85787 -6.51027 2.02689
rclavicle -2.14936e-015 -5.36719e-015
rhumerus -27.243 -17.9724 -79.5864
rradius 21.9517
rwrist 38.4075
rhand -18.7705 -26.4393
rfingers 7.12502
rthumb 7.52669 -56.2854
lclavicle -2.14936e-015 -5.36719e-015
lhumerus -29.0791 3.51466 88.0371
lradius 19.3593
lwrist 5.61536
lhand -26.2208 -4.609
lfingers 7.12502
lthumb 0.332503 25.3705
rfemur -12.7311 -1.39984 20.0115
rtibia 23.6558
rfoot -16.519 1.91163
rtoes 12.6823
lfemur -10.2293 9.86885 -18.0937
ltibia 20.5356
lfoot -13.2231 8.21324
ltoes -0.5394
564
root 0.498327 17.5813 7.02369 7.3518 -3.75881 -1.79861
lowerback -4.65805 -1.02483 -0.125582
upperback 0.554351 -1.40641 1.45752
thorax 3.2225 -0.715792 1.46733
lowerneck -4.48685 -9.91297 -6.05567
upperneck 3.95472 -13.1137 4.8334
head 2.8491 -6.49645 2.02591
rclavicle 3.11843e-015 4.96962e-016
rhumerus -27.2891 -18.0793 -79.5245
rradius 21.8862
rwrist 38.5043
rhand -18.7469 -26.4364
rfingers 7.12502
rthumb 7.54942 -56.2817
lclavicle 3.11843e-015 4.96962e-016
lhumerus -29.1088 3.59445 87.988
lradius 19.2389
lwrist 5.44055
lhand -26.3201 -4.86621
lfingers 7.12502
lthumb 0.236615 25.1134
rfemur -12.728 -1.41766 20.005
rtibia 23.6614
rfoot -16.5253 1.91318
rtoes 12.6829
lfemur -10.2238 9.86173 -18.0999
ltibia 20.5284
lfoot -13.2244 8.2065
ltoes -0.548705
